<?xml version="1.0" standalone="no"?>
<!DOCTYPE svg PUBLIC "-//W3C//DTD SVG 20010904//EN"
 "http://www.w3.org/TR/2001/REC-SVG-20010904/DTD/svg10.dtd">
<svg version="1.0" xmlns="http://www.w3.org/2000/svg"
 width="256.000000pt" height="256.000000pt" viewBox="0 0 256.000000 256.000000"
 preserveAspectRatio="xMidYMid meet">
<metadata>
Created by potrace 1.14, written by Peter Selinger 2001-2017
</metadata>
<g transform="translate(0.000000,256.000000) scale(0.100000,-0.100000)"
fill="#000000" stroke="none">
<path d="M2541 2517 c4 -23 7 -566 6 -1207 -2 -1105 -3 -1167 -21 -1204 -10
-22 -29 -55 -43 -73 l-25 -33 51 0 51 0 0 1264 c0 695 -3 1271 -6 1280 -12 32
-21 15 -13 -27z"/>
<path d="M841 1855 c-125 -35 -209 -106 -264 -223 -31 -65 -32 -70 -32 -207 0
-132 2 -146 33 -233 78 -227 236 -417 491 -590 104 -72 162 -102 194 -102 56
0 229 98 347 196 175 146 271 269 344 443 54 129 70 213 64 341 -4 82 -10 107
-35 161 -38 81 -98 141 -182 182 -63 31 -71 32 -186 32 -109 0 -125 -3 -178
-28 -32 -14 -76 -40 -97 -57 -21 -16 -41 -30 -44 -30 -4 0 -30 18 -59 40 -86
64 -139 83 -247 87 -64 2 -113 -2 -149 -12z"/>
<path d="M1 83 l-1 -83 51 0 51 0 -36 41 c-19 23 -42 60 -50 83 l-14 41 -1
-82z"/>
</g>
</svg>
